Coordinates
version=1
nRows=7
nColumns=42
inDegrees=yes

Units are S.I. units (second, meters, Newtons, ...)
If the header above contains a line with 'inDegrees', this indicates whether rotational values are in degrees (yes) or radians (no).

endheader
time	pelvis_tilt	pelvis_list	pelvis_rotation	pelvis_tx	pelvis_ty	pelvis_tz	hip_flexion_r	hip_adduction_r	hip_rotation_r	knee_angle_r	knee_adduction_r	knee_angle_r_beta	ankle_angle_r	subtalar_angle_r	mtp_angle_r	hip_flexion_l	hip_adduction_l	hip_rotation_l	knee_angle_l	knee_adduction_l	knee_angle_l_beta	ankle_angle_l	subtalar_angle_l	mtp_angle_l	lumbar_extension	lumbar_bending	lumbar_rotation	arm_flex_r	arm_add_r	arm_rot_r	elbow_flex_r	pro_sup_r	wrist_flex_r	wrist_dev_r	arm_flex_l	arm_add_l	arm_rot_l	elbow_flex_l	pro_sup_l	wrist_flex_l	wrist_dev_l
      0.66000000	     11.31191411	     -4.41842826	     -9.58949762	     -0.43797864	      0.84069114	     -0.17756692	    -28.65242467	      5.44400349	     -4.21989923	     14.22737464	      0.36630521	      0.24831453	     24.40179842	      1.82162387	     -7.65830059	      9.78500940	     -5.57346410	    -14.87041850	      8.77070059	      6.55979580	      0.15307760	      7.68671676	     -4.37844584	     -7.65830059	    -23.34886666	      0.66374273	     15.25276361	     22.93446716	    -11.58208054	     10.29635004	     48.94511530	     90.00000001	      0.00000000	      0.00000000	    -10.25394539	     -0.75897426	    -18.65600194	     18.38334138	     90.00000001	      0.00000000	      0.00000000
      0.67000000	     11.30382202	     -3.89809088	     -9.73719566	     -0.42601906	      0.84022860	     -0.17742388	    -28.55212515	      4.53394884	     -5.59248151	     15.94688753	      0.12930418	      0.27832569	     24.63910418	      3.94720191	     -7.64471209	      9.53268877	     -4.66413613	    -14.11640156	      9.53256546	      6.27633250	      0.16637465	      6.98075287	     -5.14853168	     -7.64471209	    -23.16121397	     -0.02318482	     15.25139854	     22.26772406	    -11.38106628	      9.79131058	     48.36879984	     90.00000001	      0.00000000	      0.00000000	     -9.85852813	     -0.77776273	    -20.30248944	     17.99846894	     90.00000001	      0.00000000	      0.00000000
      0.68000000	     11.22067663	     -3.73006556	     -9.83527193	     -0.41423960	      0.84010577	     -0.17711147	    -28.66777069	      4.20685880	     -5.13182561	     17.09273155	     -0.09542770	      0.29832444	     23.99840279	      4.01490723	     -7.64333449	      9.38493833	     -4.31929596	    -13.36197781	     10.53716673	      6.24697573	      0.18390825	      6.82988597	     -5.10971317	     -7.64333449	    -23.00785432	     -0.33761263	     15.36149238	     21.52986127	    -11.37200000	      9.78761552	     47.89597910	     90.00000001	      0.00000000	      0.00000000	     -9.64899466	     -0.89277188	    -20.32122898	     18.12438530	     90.00000001	      0.00000000	      0.00000000
      0.69000000	     11.27078409	     -3.36829251	     -9.88342694	     -0.40243703	      0.84038616	     -0.17707488	    -28.50160015	      3.53398953	     -5.51805612	     19.04270045	     -0.22550726	      0.33235782	     22.39848625	      3.52302670	     -7.63997060	      9.28580146	     -3.70134231	    -13.19862464	     11.91391028	      5.97656690	      0.20793696	      6.48913059	     -5.70188271	     -7.63997060	    -22.98018341	     -0.85031794	     15.27999589	     20.86192519	    -11.19565185	      9.43375530	     47.03205491	     90.00000001	      0.00000000	      0.00000000	     -9.23411205	     -1.04783850	    -20.39212885	     17.89094532	     90.00000001	      0.00000000	      0.00000000
      0.70000000	     11.37524877	     -3.07936121	     -9.86332938	     -0.39069400	      0.84106720	     -0.17714854	    -28.34901206	      2.97400168	     -5.36538649	     21.00248944	     -0.26194232	      0.36656259	     20.94141130	      3.12820637	     -7.63722046	      9.02191201	     -3.16966739	    -12.60549124	     13.07843053	      5.83987355	      0.22826167	      6.43271148	     -5.98045075	     -7.63722046	    -23.06925712	     -1.27315345	     15.21396548	     20.08863417	    -11.07021404	      9.08998301	     46.27821621	     90.00000001	      0.00000000	      0.00000000	     -8.74421228	     -1.20819288	    -20.42170325	     17.82031601	     90.00000001	      0.00000000	      0.00000000
      0.71000000	     11.48798814	     -2.69523290	     -9.81643918	     -0.37889006	      0.84203463	     -0.17717118	    -27.99189300	      2.35506226	     -5.22956219	     23.29782739	     -0.37451601	      0.40662380	     19.07056784	      2.15389872	     -7.63287145	      8.74098932	     -2.54409186	    -11.84649952	     14.23778086	      5.71694440	      0.24849615	      6.33847615	     -6.49969260	     -7.63287145	    -23.15074348	     -1.81623348	     15.11776994	     19.24555476	    -10.85963101	      8.55322117	     45.40015498	     90.00000001	      0.00000000	      0.00000000	     -8.08579654	     -1.42796971	    -20.48149518	     17.63853743	     90.00000001	      0.00000000	      0.00000000
      0.72000000	     11.61148615	     -2.42208399	     -9.69732988	     -0.36720745	      0.84333690	     -0.17729155	    -27.55399702	      1.86356354	     -4.52007012	     25.71137991	     -0.22086262	      0.44874823	     16.74282123	      0.37291595	     -7.62569776	      8.30944724	     -2.02730237	    -10.45173569	     15.12426764	      5.74491674	      0.26396827	      6.25190482	     -7.81677710	     -7.62569776	    -23.29616932	     -2.20519523	     15.00784188	     18.36640673	    -10.66910012	      7.95411008	     44.46253921	     90.00000001	      0.00000000	      0.00000000	     -7.31337648	     -1.63821964	    -20.66802944	     17.47214815	     90.00000001	      0.00000000	      0.00000000
